<?xml version="1.0" encoding="utf-8"?>
<!-- Generator: Adobe Illustrator 19.0.0, SVG Export Plug-In . SVG Version: 6.00 Build 0)  -->
<svg version="1.1" id="ﾃ神xA1_ﾃ神xBB_ﾃ神xBE_ﾃ神xB9__x5F_1"
	 xmlns="http://www.w3.org/2000/svg" xmlns:xlink="http://www.w3.org/1999/xlink" x="0px" y="0px" viewBox="-270.9 406.9 43.8 26.9"
	 style="enable-background:new -270.9 406.9 43.8 26.9;" xml:space="preserve">
<style type="text/css">
	.st0{fill:#64B5F6;}
	.st1{fill:#F5F5F5;}
	.st2{fill:#FFC107;stroke:#BF360C;stroke-width:5.473056e-002;}
	.st3{fill:#BF360C;}
	.st4{fill:#FFC107;stroke:#BF360C;stroke-width:7.357223e-002;}
	.st5{fill:#843511;}
</style>
<path class="st0" d="M-270.9,406.9h43.8v26.9h-43.8V406.9z"/>
<path class="st1" d="M-270.9,415.8h43.8v9h-43.8V415.8z"/>
<path class="st2" d="M-249.1,420.4l1.4,3c0,0,0,0.1,0.1,0c0,0,0-0.1,0-0.1l-1.2-3.1 M-248.8,421.4c0,0.5,0.3,0.7,0.2,1.1
	c0,0.4,0.2,0.6,0.2,0.8c0.1,0.2-0.1,0.3,0,0.3c0,0,0.1-0.1,0.1-0.3c0-0.2-0.2-0.3-0.2-0.8c0-0.5-0.2-0.6-0.1-1.1"/>
<path class="st2" d="M-249.1,420.3l0.1,3.3c0,0,0,0.1,0,0.1c0,0,0-0.1,0-0.1l0.1-3.3 M-249.3,421.4c-0.2,0.4,0,0.8-0.2,1.1
	c-0.2,0.4-0.1,0.7-0.1,0.8c0,0.2-0.2,0.2-0.1,0.3c0,0,0.2,0,0.2-0.3c0.1-0.2-0.1-0.4,0.2-0.8c0.2-0.5,0-0.7,0.3-1.1"/>
<path class="st2" d="M-249.1,420.3l-1.2,3.1c0,0,0,0.1,0,0.1c0,0,0.1,0,0.1,0l1.4-3 M-249.7,421.2c-0.3,0.3-0.3,0.7-0.6,1
	c-0.3,0.3-0.3,0.6-0.4,0.7c-0.1,0.2-0.2,0.1-0.2,0.2c0,0,0.2,0,0.3-0.2s0.1-0.4,0.4-0.7c0.4-0.3,0.3-0.6,0.7-0.9"/>
<path class="st2" d="M-249.1,420.2l-2.3,2.5c0,0,0,0,0,0.1c0,0,0.1,0,0.1,0l2.5-2.3 M-250,420.9c-0.4,0.2-0.6,0.5-1,0.6
	c-0.4,0.1-0.5,0.4-0.7,0.5c-0.1,0.1-0.3,0-0.3,0.1c0,0.1,0.2,0.1,0.4,0c0.2-0.1,0.2-0.3,0.7-0.5c0.5-0.2,0.5-0.4,0.9-0.5"/>
<path class="st3" d="M-248.8,421.5c0,0.4,0.3,0.6,0.2,1C-248.4,422.2-248.7,422-248.8,421.5 M-249,420.4l1,2.1l-0.8-2.2"/>
<path class="st3" d="M-249.2,421.5c-0.1,0.4,0,0.7-0.2,1.1C-249.2,422.3-249.3,422-249.2,421.5 M-249.1,420.3l0.1,2.3l0.1-2.3"/>
<path class="st3" d="M-249.7,421.3c-0.3,0.3-0.3,0.6-0.6,0.9C-249.9,422.1-250,421.7-249.7,421.3 M-249,420.3l-0.8,2.2l1-2.1"/>
<path class="st3" d="M-250,421c-0.4,0.2-0.5,0.5-0.9,0.6C-250.5,421.6-250.4,421.2-250,421 M-249,420.3l-1.6,1.7l1.7-1.6"/>
<path class="st2" d="M-249,420.2l-3,1.4c0,0-0.1,0,0,0.1c0,0,0.1,0,0.1,0l3.1-1.2 M-250.1,420.4c-0.5,0-0.7,0.3-1.1,0.2
	c-0.4,0-0.6,0.2-0.8,0.2c-0.2,0.1-0.3-0.1-0.3,0c0,0,0.1,0.1,0.3,0.1c0.2,0,0.3-0.2,0.8-0.2c0.5,0,0.6-0.2,1.1-0.1"/>
<path class="st2" d="M-249,420.2l-3.3,0.1c0,0-0.1,0-0.1,0s0.1,0,0.1,0l3.3,0.1 M-250,420c-0.4-0.2-0.8,0-1.1-0.2
	c-0.4-0.2-0.7-0.1-0.8-0.1c-0.2,0-0.2-0.2-0.3-0.1c0,0,0,0.2,0.3,0.2c0.2,0.1,0.4-0.1,0.8,0.2c0.5,0.2,0.7,0,1.1,0.3"/>
<path class="st2" d="M-248.9,420.2l-3.1-1.2c0,0-0.1,0-0.1,0c0,0,0,0.1,0,0.1l3,1.4 M-249.8,419.6c-0.3-0.3-0.7-0.3-1-0.6
	c-0.3-0.3-0.6-0.3-0.7-0.4c-0.2-0.1-0.1-0.2-0.2-0.2c0,0,0,0.2,0.2,0.3c0.2,0.1,0.4,0.1,0.7,0.4s0.6,0.3,0.9,0.7"/>
<path class="st2" d="M-248.8,420.2l-2.5-2.3c0,0,0,0-0.1,0c0,0,0,0.1,0,0.1l2.3,2.5 M-249.5,419.3c-0.2-0.4-0.5-0.6-0.6-1
	c-0.1-0.4-0.4-0.5-0.5-0.7c-0.1-0.1,0-0.3-0.1-0.3c-0.1,0-0.1,0.2,0,0.4c0.1,0.2,0.3,0.2,0.5,0.7c0.2,0.5,0.4,0.5,0.6,0.9"/>
<path class="st3" d="M-250.2,420.5c-0.4,0-0.6,0.3-1,0.2C-250.9,420.9-250.6,420.6-250.2,420.5 M-249,420.2l-2.1,1l2.2-0.8"/>
<path class="st3" d="M-250.2,420.1c-0.4-0.1-0.7,0-1.1-0.2C-251,420.1-250.6,419.9-250.2,420.1 M-249,420.2l-2.3,0.1l2.3,0.1"/>
<path class="st3" d="M-250,419.6c-0.3-0.3-0.6-0.3-0.9-0.6C-250.7,419.3-250.4,419.3-250,419.6 M-248.9,420.2l-2.2-0.8l2.1,1"/>
<path class="st3" d="M-249.6,419.3c-0.2-0.4-0.5-0.5-0.6-0.9C-250.2,418.8-249.9,418.9-249.6,419.3 M-248.9,420.3l-1.7-1.6l1.6,1.7"
	/>
<path class="st2" d="M-248.8,420.3l-1.4-3c0,0,0-0.1-0.1,0c0,0,0,0.1,0,0.1l1.2,3.1 M-249.1,419.2c0-0.5-0.3-0.7-0.2-1.1
	c0-0.4-0.2-0.6-0.2-0.8c-0.1-0.2,0.1-0.3,0-0.3c0,0-0.1,0.1-0.1,0.3c0,0.2,0.2,0.3,0.2,0.8c0,0.5,0.2,0.6,0.1,1.1"/>
<path class="st2" d="M-248.8,420.3l-0.1-3.3c0,0,0-0.1,0-0.1c0,0,0,0.1,0,0.1l-0.1,3.3 M-248.7,419.2c0.2-0.4,0-0.8,0.2-1.1
	c0.2-0.4,0.1-0.7,0.1-0.8c0-0.2,0.2-0.2,0.1-0.3c0,0-0.2,0-0.2,0.3c-0.1,0.2,0.1,0.4-0.2,0.8c-0.2,0.5,0,0.7-0.3,1.1"/>
<path class="st2" d="M-248.8,420.4l1.2-3.1c0,0,0-0.1,0-0.1c0,0-0.1,0-0.1,0l-1.4,3 M-248.3,419.4c0.3-0.3,0.3-0.7,0.6-1
	c0.3-0.3,0.3-0.6,0.4-0.7c0.1-0.2,0.2-0.1,0.2-0.2c0,0-0.2,0-0.3,0.2c-0.1,0.2-0.1,0.4-0.4,0.7c-0.4,0.3-0.3,0.6-0.7,0.9"/>
<path class="st2" d="M-248.8,420.4l2.3-2.5c0,0,0,0,0-0.1c0,0-0.1,0-0.1,0l-2.5,2.3 M-248,419.8c0.4-0.2,0.6-0.5,1-0.6
	c0.4-0.1,0.5-0.4,0.7-0.5c0.1-0.1,0.3,0,0.3-0.1c0-0.1-0.2-0.1-0.4,0c-0.2,0.1-0.2,0.3-0.7,0.5c-0.5,0.2-0.5,0.4-0.9,0.6"/>
<path class="st3" d="M-249.2,419.1c0-0.4-0.3-0.6-0.2-1C-249.5,418.4-249.3,418.6-249.2,419.1 M-248.9,420.3l-1-2.1l0.8,2.2"/>
<path class="st3" d="M-248.7,419.1c0.1-0.4,0-0.7,0.2-1.1C-248.7,418.3-248.6,418.7-248.7,419.1 M-248.9,420.3l-0.1-2.3l-0.1,2.3"/>
<path class="st3" d="M-248.3,419.3c0.3-0.3,0.3-0.6,0.6-0.9C-248,418.6-248,418.9-248.3,419.3 M-248.9,420.4l0.8-2.2l-1,2.1"/>
<path class="st3" d="M-247.9,419.7c0.4-0.2,0.5-0.5,0.9-0.6C-247.4,419.1-247.5,419.4-247.9,419.7 M-248.9,420.4l1.6-1.7l-1.7,1.6"
	/>
<path class="st2" d="M-248.9,420.5l3-1.4c0,0,0.1,0,0-0.1c0,0-0.1,0-0.1,0l-3.1,1.2 M-247.8,420.2c0.5,0,0.7-0.3,1.1-0.2
	c0.4,0,0.6-0.2,0.8-0.2c0.2-0.1,0.3,0.1,0.3,0c0,0-0.1-0.1-0.3-0.1c-0.2,0-0.3,0.2-0.8,0.2c-0.5,0-0.6,0.2-1.1,0.1"/>
<path class="st2" d="M-249,420.5l3.3-0.1c0,0,0.1,0,0.1,0s-0.1,0-0.1,0l-3.3-0.1 M-247.9,420.6c0.4,0.2,0.8,0,1.1,0.2
	c0.4,0.2,0.7,0.1,0.8,0.1c0.2,0,0.2,0.2,0.3,0.1c0,0,0-0.2-0.3-0.2c-0.2-0.1-0.4,0.1-0.8-0.2c-0.5-0.2-0.7,0-1.1-0.3"/>
<path class="st2" d="M-249,420.5l3.1,1.2c0,0,0.1,0,0.1,0c0,0,0-0.1,0-0.1l-3-1.4 M-248.1,421c0.3,0.3,0.7,0.3,1,0.6
	c0.3,0.3,0.6,0.3,0.7,0.4c0.2,0.1,0.1,0.2,0.2,0.2c0,0,0-0.2-0.2-0.3c-0.2-0.1-0.4-0.1-0.7-0.4s-0.6-0.3-0.9-0.7"/>
<path class="st2" d="M-249.1,420.4l2.5,2.3c0,0,0,0,0.1,0c0,0,0-0.1,0-0.1l-2.3-2.5 M-248.4,421.3c0.2,0.4,0.5,0.6,0.6,1
	c0.1,0.4,0.4,0.5,0.5,0.7c0.1,0.1,0,0.3,0.1,0.3c0.1,0,0.1-0.2,0-0.4c-0.1-0.2-0.3-0.2-0.5-0.7c-0.2-0.5-0.4-0.5-0.6-0.9"/>
<path class="st3" d="M-247.8,420.1c0.4,0,0.6-0.3,1-0.2C-247,419.8-247.3,420-247.8,420.1 M-248.9,420.4l2.1-1l-2.2,0.8"/>
<path class="st3" d="M-247.8,420.6c0.4,0.1,0.7,0,1.1,0.2C-247,420.6-247.3,420.7-247.8,420.6 M-249,420.4l2.3-0.1l-2.3-0.1"/>
<path class="st3" d="M-248,421c0.3,0.3,0.6,0.3,0.9,0.6C-247.2,421.3-247.6,421.3-248,421 M-249,420.4l2.2,0.8l-2.1-1"/>
<path class="st3" d="M-248.3,421.3c0.2,0.4,0.5,0.5,0.6,0.9C-247.7,421.9-248.1,421.8-248.3,421.3 M-249,420.4l1.7,1.6l-1.6-1.7"/>
<circle class="st4" cx="-249" cy="420.3" r="1.4"/>
<path class="st5" d="M-248.5,420c-0.1,0-0.2,0-0.2,0.1c0.1,0.1,0.3,0.1,0.5,0C-248.3,420.1-248.4,420-248.5,420z M-248.5,420.1
	c0.1,0,0.2,0,0.2,0.1c-0.1,0.1-0.3,0.1-0.4,0C-248.6,420.1-248.6,420.1-248.5,420.1L-248.5,420.1z"/>
<path class="st3" d="M-248.5,420c-0.1,0-0.2,0-0.2,0.1c-0.1,0.1-0.1,0-0.1,0.1c0,0,0,0,0,0c0,0,0.1,0,0.1-0.1
	C-248.6,420-248.5,420-248.5,420c0.2,0,0.3,0.2,0.3,0.2C-248.1,420.1-248.3,420-248.5,420L-248.5,420z"/>
<path class="st3" d="M-248.1,420c-0.2-0.2-0.5-0.2-0.7-0.1c0,0.1-0.1,0.1-0.1,0.2c0,0.1,0,0.2,0.1,0.4c0,0,0,0,0,0
	c-0.1-0.2-0.1-0.3-0.1-0.5c0,0,0-0.1,0-0.1C-248.7,419.7-248.3,419.7-248.1,420L-248.1,420z"/>
<circle class="st3" cx="-248.5" cy="420.1" r="0.1"/>
<path class="st3" d="M-248.2,420.2c-0.2,0.1-0.4,0.1-0.5,0.1c-0.1-0.1-0.1-0.1-0.1-0.1c0,0,0,0,0.1,0.1
	C-248.6,420.3-248.4,420.3-248.2,420.2L-248.2,420.2z M-249.2,420.5C-249.2,420.5-249.3,420.6-249.2,420.5c-0.1,0.1,0,0.2,0,0.2
	c0,0,0.1,0,0.1,0c0,0,0.1,0,0.1,0h0c0,0,0.1,0,0.1,0c0,0,0,0,0.1,0c0.1,0,0.1,0,0.1-0.1c0,0,0-0.1-0.1-0.1c0,0,0,0,0,0.1
	c0,0,0,0.1-0.1,0.1c0,0-0.1,0-0.1-0.1c0,0-0.1,0.1-0.1,0.1C-249,420.7-249.1,420.6-249.2,420.5c0.1,0.1,0.1,0.1,0,0.1
	C-249.2,420.6-249.2,420.6-249.2,420.5C-249.2,420.5-249.2,420.5-249.2,420.5L-249.2,420.5z M-249.1,420.8c-0.1,0-0.1,0.1-0.2,0.2
	C-249.3,420.9-249.2,420.9-249.1,420.8c0,0,0.1,0.1,0.1,0.1h0c0,0,0.1-0.1,0.2,0c0.1,0,0.1,0.1,0.2,0.1c-0.1-0.1-0.1-0.2-0.2-0.2
	c0,0-0.1,0-0.1,0h0C-249,420.8-249.1,420.8-249.1,420.8L-249.1,420.8z"/>
<path class="st3" d="M-249.1,420.9c0,0-0.1,0-0.2,0c0.2,0,0.2,0,0.3,0h0c0.1,0,0.1-0.1,0.3,0c-0.2-0.1-0.3,0-0.3,0h0
	C-249,420.9-249,420.9-249.1,420.9z"/>
<path class="st3" d="M-249.3,420.9C-249.3,420.9-249.3,420.9-249.3,420.9c0.2,0,0.1,0.1,0.3,0.1c0.2,0,0.1-0.1,0.3-0.1
	c-0.2,0-0.2,0.1-0.3,0.1h0C-249.1,421.1-249.1,420.9-249.3,420.9L-249.3,420.9z M-248.8,421.3c0-0.1-0.1-0.2-0.2-0.2
	c-0.1,0-0.2,0.1-0.2,0.2c0-0.1,0.1-0.1,0.2-0.1S-248.8,421.2-248.8,421.3z M-249.8,420c0.2-0.2,0.5-0.2,0.7-0.1
	c0,0.1,0.1,0.1,0.1,0.2c0,0.1,0,0.2-0.1,0.4c0,0,0,0,0,0c0.1-0.2,0.1-0.3,0.1-0.5c0,0,0-0.1,0-0.1
	C-249.3,419.7-249.6,419.7-249.8,420z"/>
<path class="st3" d="M-249.4,420c0.1,0,0.2,0,0.2,0.1c0.1,0.1,0.1,0,0.1,0.1c0,0,0,0,0,0c0,0-0.1,0-0.1-0.1
	C-249.3,420-249.4,420-249.4,420c-0.2,0-0.3,0.2-0.3,0.2C-249.8,420.1-249.6,420-249.4,420L-249.4,420z"/>
<path class="st5" d="M-249.4,420c-0.1,0-0.2,0-0.2,0.1c0.1,0.1,0.3,0.1,0.5,0C-249.3,420.1-249.4,420-249.4,420L-249.4,420z
	 M-249.4,420.1c0.1,0,0.2,0,0.2,0.1c-0.1,0.1-0.3,0.1-0.4,0C-249.6,420.1-249.5,420.1-249.4,420.1L-249.4,420.1z"/>
<circle class="st3" cx="-249.4" cy="420.1" r="0.1"/>
<path class="st3" d="M-249.7,420.2c0.2,0.1,0.4,0.1,0.5,0.1s0.1-0.1,0.1-0.1c0,0,0,0-0.1,0.1C-249.4,420.3-249.5,420.3-249.7,420.2
	L-249.7,420.2z"/>
</svg>
