<?xml version="1.0" encoding="utf-8"?>
<!-- Generator: Adobe Illustrator 19.0.0, SVG Export Plug-In . SVG Version: 6.00 Build 0)  -->
<svg version="1.1" id="ﾃ神xA1_ﾃ神xBB_ﾃ神xBE_ﾃ神xB9__x5F_1"
	 xmlns="http://www.w3.org/2000/svg" xmlns:xlink="http://www.w3.org/1999/xlink" x="0px" y="0px" viewBox="-270.9 406.9 43.8 26.9"
	 style="enable-background:new -270.9 406.9 43.8 26.9;" xml:space="preserve">
<style type="text/css">
	.st0{fill:#ECEFF1;}
	.st1{fill:#F44336;}
	.st2{fill:#3F51B5;}
	.st3{fill:#FFFFFF;}
</style>
<rect x="-271" y="406.9" class="st0" width="44" height="27"/>
<g>
	<rect x="-271" y="406.9" class="st1" width="44" height="3"/>
	<rect x="-271" y="412.9" class="st1" width="44" height="3"/>
	<rect x="-271" y="418.9" class="st1" width="44" height="3"/>
	<rect x="-271" y="424.9" class="st1" width="44" height="3"/>
	<rect x="-271" y="430.9" class="st1" width="44" height="3"/>
</g>
<rect x="-271" y="406.9" class="st2" width="21" height="15"/>
<g>
	<polygon class="st3" points="-268.8,408.9 -268.3,409.9 -267.3,410 -268,410.8 -267.8,411.9 -268.8,411.4 -269.7,411.9 
		-269.5,410.8 -270.3,410 -269.2,409.9 	"/>
	<polygon class="st3" points="-264.8,408.9 -264.3,409.9 -263.3,410 -264,410.8 -263.8,411.9 -264.8,411.4 -265.7,411.9 
		-265.5,410.8 -266.3,410 -265.2,409.9 	"/>
	<polygon class="st3" points="-260.8,408.9 -260.3,409.9 -259.3,410 -260,410.8 -259.8,411.9 -260.8,411.4 -261.7,411.9 
		-261.5,410.8 -262.3,410 -261.2,409.9 	"/>
	<polygon class="st3" points="-256.8,408.9 -256.3,409.9 -255.2,410 -256,410.8 -255.8,411.9 -256.8,411.4 -257.7,411.9 
		-257.5,410.8 -258.3,410 -257.2,409.9 	"/>
	<polygon class="st3" points="-253,408.9 -252.5,409.9 -251.5,410 -252.2,410.8 -252.1,411.9 -253,411.4 -253.9,411.9 -253.7,410.8 
		-254.5,410 -253.5,409.9 	"/>
	<polygon class="st3" points="-268.8,416.9 -268.3,417.9 -267.3,418 -268,418.8 -267.8,419.9 -268.8,419.4 -269.7,419.9 
		-269.5,418.8 -270.3,418 -269.2,417.9 	"/>
	<polygon class="st3" points="-264.8,416.9 -264.3,417.9 -263.3,418 -264,418.8 -263.8,419.9 -264.8,419.4 -265.7,419.9 
		-265.5,418.8 -266.3,418 -265.2,417.9 	"/>
	<polygon class="st3" points="-260.8,416.9 -260.3,417.9 -259.3,418 -260,418.8 -259.8,419.9 -260.8,419.4 -261.7,419.9 
		-261.5,418.8 -262.3,418 -261.2,417.9 	"/>
	<polygon class="st3" points="-256.8,416.9 -256.3,417.9 -255.2,418 -256,418.8 -255.8,419.9 -256.8,419.4 -257.7,419.9 
		-257.5,418.8 -258.3,418 -257.2,417.9 	"/>
	<polygon class="st3" points="-253,416.9 -252.5,417.9 -251.5,418 -252.2,418.8 -252.1,419.9 -253,419.4 -253.9,419.9 -253.7,418.8 
		-254.5,418 -253.5,417.9 	"/>
	<polygon class="st3" points="-267.8,412.9 -267.3,413.9 -266.3,414 -267,414.8 -266.8,415.9 -267.8,415.4 -268.7,415.9 
		-268.5,414.8 -269.3,414 -268.2,413.9 	"/>
	<polygon class="st3" points="-263.8,412.9 -263.3,413.9 -262.3,414 -263,414.8 -262.8,415.9 -263.8,415.4 -264.7,415.9 
		-264.5,414.8 -265.3,414 -264.2,413.9 	"/>
	<polygon class="st3" points="-259.8,412.9 -259.3,413.9 -258.3,414 -259,414.8 -258.8,415.9 -259.8,415.4 -260.7,415.9 
		-260.5,414.8 -261.3,414 -260.2,413.9 	"/>
	<polygon class="st3" points="-255.7,412.9 -255.3,413.9 -254.2,414 -255,414.8 -254.8,415.9 -255.7,415.4 -256.7,415.9 
		-256.5,414.8 -257.3,414 -256.2,413.9 	"/>
	<polygon class="st3" points="-252,412.9 -251.5,413.9 -250.5,414 -251.2,414.8 -251.1,415.9 -252,415.4 -252.9,415.9 -252.7,414.8 
		-253.5,414 -252.5,413.9 	"/>
</g>
</svg>
